HIERARCHY
ROOT hip
{
	OFFSET 0.000000 0.000000 0.000000 
	CHANNELS 6 Xposition Yposition Zposition Xrotation Zrotation Yrotation
	JOINT abdomen
	{
		OFFSET 0.000000 3.402643 0.000000 
		CHANNELS 3 Xrotation Zrotation Yrotation
		JOINT chest
		{
			OFFSET 0.000000 8.438565 -0.680529 
			CHANNELS 3 Xrotation Zrotation Yrotation
			JOINT neck
			{
				OFFSET 0.000000 10.207942 -0.272212 
				CHANNELS 3 Xrotation Zrotation Yrotation
				JOINT head
				{
					OFFSET 0.000000 3.130431 0.000000 
					CHANNELS 3 Xrotation Zrotation Yrotation
					End Site
					{
						OFFSET 0.000000 3.130435 0.000000 
					}
				}
			}
			JOINT lCollar
			{
				OFFSET 3.470700 6.669187 -0.816635 
				CHANNELS 3 Yrotation Zrotation Xrotation
				JOINT lShldr
				{
					OFFSET 3.198488 0.000000 0.000000 
					CHANNELS 3 Zrotation Yrotation Xrotation
					JOINT lForeArm
					{
						OFFSET 10.139888 0.000000 0.000000 
						CHANNELS 3 Yrotation Zrotation Xrotation
						JOINT lHand
						{
							OFFSET 8.370511 0.000000 0.000000 
							CHANNELS 3 Zrotation Yrotation Xrotation
							End Site
							{
								OFFSET 4.083176 0.000000 0.000000 
							}
						}
					}
				}
			}
			JOINT rCollar
			{
				OFFSET -3.470700 6.669187 -0.816635 
				CHANNELS 3 Yrotation Zrotation Xrotation
				JOINT rShldr
				{
					OFFSET -3.198488 0.000000 0.000000 
					CHANNELS 3 Zrotation Yrotation Xrotation
					JOINT rForeArm
					{
						OFFSET -10.139888 0.000000 0.000000 
						CHANNELS 3 Yrotation Zrotation Xrotation
						JOINT rHand
						{
							OFFSET -8.370511 0.000000 0.000000 
							CHANNELS 3 Zrotation Yrotation Xrotation
							End Site
							{
								OFFSET -4.083176 0.000000 0.000000 
							}
						}
					}
				}
			}
		}
	}
	JOINT lThigh
	{
		OFFSET 5.308129 -1.633274 1.361059 
		CHANNELS 3 Xrotation Zrotation Yrotation
		JOINT lShin
		{
			OFFSET -2.041588 -20.007561 0.000000 
			CHANNELS 3 Xrotation Zrotation Yrotation
			JOINT lFoot
			{
				OFFSET 0.000000 -19.190928 -1.224953 
				CHANNELS 3 Xrotation Yrotation Zrotation
				End Site
				{
					OFFSET 0.000000 -2.449906 4.627600 
				}
			}
		}
	}
	JOINT rThigh
	{
		OFFSET -5.308129 -1.633274 1.361059 
		CHANNELS 3 Xrotation Zrotation Yrotation
		JOINT rShin
		{
			OFFSET 2.041588 -20.007561 0.000000 
			CHANNELS 3 Xrotation Zrotation Yrotation
			JOINT rFoot
			{
				OFFSET 0.000000 -19.190928 -1.224953 
				CHANNELS 3 Xrotation Yrotation Zrotation
				End Site
				{
					OFFSET 0.000000 -2.449906 4.627600 
				}
			}
		}
	}
}
MOTION
Frames: 11
Frame Time: 0.016667
0.377549 47.166855 0.599561 1.714849 3.224502 9.732574 0.000000 0.000000 0.000000 1.317812 -5.104080 -2.078607 -31.106659 10.788190 -9.276107 34.666161 -13.231559 -2.337891 -3.379444 -8.361106 -0.137872 -61.266716 21.895267 1.793025 -43.806313 -0.576419 2.495488 -15.327250 4.521536 25.208096 -6.514365 21.412468 -1.124883 45.229828 -31.225002 8.394827 45.455612 0.418191 2.460043 7.723643 -17.476772 19.783884 -9.861277 3.476058 2.268043 24.286005 -3.744945 -1.658926 -15.477443 12.291070 -1.833072 -8.786908 -12.427076 -8.810388 28.348108 3.046740 1.787084 -19.724314 -4.915719 3.150414 
0.381942 47.172523 0.595972 1.775252 3.291877 9.733132 0.000000 0.000000 0.000000 1.226559 -5.279745 -2.079497 -30.995924 10.646549 -9.171131 34.654766 -13.153039 -2.387654 -3.379444 -8.361106 -0.137872 -61.266716 21.895267 1.793025 -43.806313 -0.576419 2.495488 -15.327250 4.521536 25.208096 -6.616403 21.593739 -1.158890 44.951794 -31.146357 8.665033 45.543686 0.426142 2.469887 7.636582 -17.567076 19.695412 -9.850930 3.309763 2.007362 24.106754 -3.754395 -1.647836 -15.350031 12.354465 -1.812253 -8.787177 -12.622748 -8.985403 28.454037 2.958869 1.793281 -19.768064 -4.685581 3.273823 
0.389925 47.178196 0.596780 1.757107 3.417102 9.724530 0.000000 0.000000 0.000000 1.229762 -5.367578 -2.079501 -30.802309 10.512439 -9.138774 34.626656 -12.918406 -2.435210 -3.379444 -8.361106 -0.137872 -61.272041 21.981997 1.789356 -43.894428 -0.577256 2.498852 -15.327250 4.521536 25.208096 -6.805872 21.696199 -1.171102 44.763878 -31.158665 9.021466 45.543686 0.426142 2.469887 7.645612 -17.653667 19.517599 -9.754186 3.124603 1.831393 23.930696 -3.675982 -1.610109 -15.270183 12.794605 -1.789504 -8.785878 -12.805552 -9.170038 28.450649 2.890092 1.777153 -19.717205 -4.369536 3.272509 
0.397903 47.183868 0.597584 1.749295 3.542231 9.726319 0.000000 0.000000 0.000000 1.223200 -5.455411 -2.080428 -30.607283 10.368659 -9.104669 34.607906 -12.683784 -2.482815 -3.379444 -8.361106 -0.137872 -61.275417 22.077284 1.793651 -43.982624 -0.571326 2.495162 -15.327250 4.521536 25.208096 -6.995524 21.788965 -1.179685 44.577770 -31.163652 9.380632 45.543686 0.426142 2.469887 7.651926 -17.749310 19.337578 -9.644409 2.938346 1.664153 23.773232 -3.597971 -1.603281 -15.226908 13.263847 -1.724716 -8.796144 -13.002176 -9.364358 28.464895 2.841619 1.766545 -19.663076 -4.051347 3.261279 
0.413871 47.189545 0.599196 1.809694 3.609608 9.726937 0.000000 0.000000 0.000000 1.229610 -5.631076 -2.080440 -30.489176 10.063076 -8.986876 34.568329 -12.360803 -2.589785 -3.379444 -8.361106 -0.137872 -61.182076 22.079191 1.796190 -44.070747 -0.572184 2.498483 -15.325191 4.517898 25.127676 -7.092929 21.710123 -1.157862 44.388523 -31.082500 9.647162 45.631859 0.420168 2.466026 7.653862 -17.749083 19.250072 -9.615841 2.753029 1.471226 23.684719 -3.597701 -1.587178 -15.231617 13.405443 -1.769166 -8.787162 -13.081883 -9.550916 28.540689 2.836629 1.857981 -19.674202 -3.948190 3.299804 
0.429835 47.195221 0.600805 1.860329 3.676985 9.727565 0.000000 0.000000 0.000000 1.226258 -5.806741 -2.081421 -30.369148 9.747876 -8.858061 34.537758 -12.047587 -2.696825 -3.379444 -8.361106 -0.137872 -61.088741 22.081137 1.802408 -44.158939 -0.566254 2.494771 -15.332766 4.515826 25.037094 -7.180493 21.631042 -1.136067 44.188969 -30.998520 9.923413 45.719982 0.421179 2.468976 7.655816 -17.748890 19.162580 -9.582739 2.566365 1.297379 23.585962 -3.597589 -1.580125 -15.264167 13.539088 -1.800948 -8.796236 -13.177434 -9.696720 28.605919 2.855481 1.915480 -19.695255 -3.839060 3.341640 
0.429835 47.189545 0.600805 1.792125 3.734736 9.728201 0.000000 0.000000 0.000000 1.315142 -5.806705 -2.091137 -30.243805 9.453197 -8.671810 34.591003 -11.725206 -2.744571 -3.468765 -8.360305 -0.147504 -61.092838 22.080250 1.889544 -44.158939 -0.566254 2.494771 -15.327515 4.518143 24.945396 -7.274714 21.640635 -1.200634 44.204041 -31.084976 10.006440 45.896225 0.423247 2.474795 7.737937 -17.826046 18.997772 -9.529460 2.489847 1.218362 23.595501 -3.597579 -1.590548 -15.223963 13.583537 -1.761446 -8.766918 -13.206706 -9.511284 28.534243 2.914773 1.856270 -19.691330 -3.894918 3.442549 
0.429835 47.183868 0.600805 1.723923 3.792488 9.728847 0.000000 0.000000 0.000000 1.404025 -5.806669 -2.100852 -30.130177 9.158140 -8.487372 34.641739 -11.402937 -2.780840 -3.558086 -8.359474 -0.157133 -61.086468 22.079050 1.976680 -44.158939 -0.566254 2.494771 -15.325525 4.514540 24.864975 -7.363005 21.648987 -1.252592 44.207771 -31.169855 10.099465 46.072468 0.425373 2.480504 7.830165 -17.913692 18.821331 -9.474101 2.419774 1.138521 23.605709 -3.597655 -1.581544 -15.175724 13.603164 -1.723493 -8.748991 -13.239928 -9.325728 28.454958 2.949131 1.791019 -19.689281 -3.930029 3.544822 
0.437012 47.183868 0.609592 1.600480 3.781975 9.806794 0.000000 0.000000 0.000000 1.489656 -5.718801 -2.110563 -30.130177 9.158140 -8.487372 34.639820 -11.325274 -2.740610 -3.558086 -8.359474 -0.157133 -61.086468 22.079050 1.976680 -44.247055 -0.567132 2.498049 -15.416200 4.519609 24.776230 -7.452726 21.646774 -1.218188 44.114712 -31.172861 10.184058 46.248760 0.420504 2.479351 7.920616 -17.993700 18.740629 -9.347590 2.488056 1.218879 23.685389 -3.588219 -1.604828 -15.213577 13.546715 -1.617142 -8.562864 -13.150763 -9.345349 28.454958 2.949131 1.791019 -19.778740 -3.920971 3.548133 
0.444185 47.183868 0.618374 1.475330 3.761839 9.885386 0.000000 0.000000 0.000000 1.574295 -5.630970 -2.110554 -30.130177 9.158140 -8.487372 34.638012 -11.247600 -2.698476 -3.558086 -8.359474 -0.157133 -61.086468 22.079050 1.976680 -44.334824 -0.570958 2.494316 -15.510851 4.515888 24.689447 -7.555841 21.653143 -1.178374 44.022968 -31.169617 10.281281 46.425049 0.415653 2.478131 8.011291 -18.073523 18.662746 -9.223489 2.576595 1.309059 23.774855 -3.584123 -1.610373 -15.266312 13.400661 -1.479588 -8.376815 -13.051339 -9.345066 28.454290 2.963583 1.774949 -19.858438 -3.907391 3.520584 
0.443379 47.178196 0.626354 1.301535 3.683886 9.972440 0.000000 0.000000 0.000000 1.668412 -5.542784 -2.207738 -30.145245 9.322336 -8.490492 34.645351 -11.404570 -2.600813 -3.558086 -8.359474 -0.157133 -61.093796 22.173529 2.064682 -44.423298 -0.568936 2.504524 -15.672429 4.421703 24.710983 -7.555841 21.653143 -1.178374 44.024467 -31.259081 10.184043 46.513599 0.407020 2.480856 8.091817 -18.075043 18.585680 -9.113592 2.643988 1.292701 23.858009 -3.554469 -1.610948 -15.267496 13.302641 -1.632769 -8.219934 -13.060066 -9.450744 28.361275 2.938679 1.685399 -19.837580 -4.106072 3.425522 
